<mxfile host="app.diagrams.net" modified="2023-06-09T17:32:25.713Z" agent="Mozilla/5.0 (Windows NT 10.0; Win64; x64) AppleWebKit/537.36 (KHTML, like Gecko) Chrome/114.0.0.0 Safari/537.36" etag="aU9uM9aum2l_GZ9NI3sQ" version="21.3.8" type="device">
  <diagram name="Page-1" id="bdramn715EQ3zsa3jN6O">
    <mxGraphModel dx="1050" dy="573" grid="1" gridSize="10" guides="1" tooltips="1" connect="1" arrows="1" fold="1" page="1" pageScale="1" pageWidth="850" pageHeight="1100" math="0" shadow="0">
      <root>
        <mxCell id="0" />
        <mxCell id="1" parent="0" />
        <mxCell id="FMrM_4cMwFXPyNiu1CsQ-1" value="ActivityDiagram_UC014" style="shape=umlFrame;whiteSpace=wrap;html=1;pointerEvents=0;width=170;height=30;" vertex="1" parent="1">
          <mxGeometry x="70" y="40" width="680" height="900" as="geometry" />
        </mxCell>
        <mxCell id="FMrM_4cMwFXPyNiu1CsQ-2" value="User" style="swimlane;whiteSpace=wrap" vertex="1" parent="1">
          <mxGeometry x="110" y="100" width="320" height="810" as="geometry" />
        </mxCell>
        <mxCell id="FMrM_4cMwFXPyNiu1CsQ-3" value="" style="ellipse;shape=startState;fillColor=#000000;strokeColor=#FFFFFF;" vertex="1" parent="FMrM_4cMwFXPyNiu1CsQ-2">
          <mxGeometry x="120" y="42" width="30" height="30" as="geometry" />
        </mxCell>
        <mxCell id="FMrM_4cMwFXPyNiu1CsQ-4" value="Go to KTDI Minimarket&#xa; System Homepage&#xa;and click &#xa;&quot;Settings&quot;" style="strokeColor=#FFFFFF;" vertex="1" parent="FMrM_4cMwFXPyNiu1CsQ-2">
          <mxGeometry x="60" y="110" width="150" height="80" as="geometry" />
        </mxCell>
        <mxCell id="FMrM_4cMwFXPyNiu1CsQ-5" value="Click the&#xa;&quot;Manage Notifications&quot;&#xa; button" style="" vertex="1" parent="FMrM_4cMwFXPyNiu1CsQ-2">
          <mxGeometry x="60" y="220" width="150" height="50" as="geometry" />
        </mxCell>
        <mxCell id="FMrM_4cMwFXPyNiu1CsQ-6" value="" style="endArrow=open;strokeColor=#FFFFFF;endFill=1;rounded=0" edge="1" parent="FMrM_4cMwFXPyNiu1CsQ-2" source="FMrM_4cMwFXPyNiu1CsQ-4" target="FMrM_4cMwFXPyNiu1CsQ-5">
          <mxGeometry relative="1" as="geometry" />
        </mxCell>
        <mxCell id="FMrM_4cMwFXPyNiu1CsQ-7" value="" style="endArrow=open;endFill=1;endSize=12;html=1;rounded=0;exitX=0.5;exitY=1;exitDx=0;exitDy=0;" edge="1" parent="FMrM_4cMwFXPyNiu1CsQ-2" source="FMrM_4cMwFXPyNiu1CsQ-3" target="FMrM_4cMwFXPyNiu1CsQ-4">
          <mxGeometry width="160" relative="1" as="geometry">
            <mxPoint x="295.5" y="272" as="sourcePoint" />
            <mxPoint x="455.5" y="272" as="targetPoint" />
          </mxGeometry>
        </mxCell>
        <mxCell id="FMrM_4cMwFXPyNiu1CsQ-10" value="" style="ellipse;shape=endState;fillColor=#000000;strokeColor=#FFFFFF;" vertex="1" parent="FMrM_4cMwFXPyNiu1CsQ-2">
          <mxGeometry x="120" y="760" width="30" height="30" as="geometry" />
        </mxCell>
        <mxCell id="FMrM_4cMwFXPyNiu1CsQ-11" value="Go back to the&#xa;KTDI Minimarket&#xa; System Homepage" style="" vertex="1" parent="FMrM_4cMwFXPyNiu1CsQ-2">
          <mxGeometry x="55" y="680" width="160" height="60" as="geometry" />
        </mxCell>
        <mxCell id="FMrM_4cMwFXPyNiu1CsQ-12" value="" style="endArrow=open;strokeColor=#FFFFFF;endFill=1;rounded=0" edge="1" parent="FMrM_4cMwFXPyNiu1CsQ-2" source="FMrM_4cMwFXPyNiu1CsQ-11" target="FMrM_4cMwFXPyNiu1CsQ-10">
          <mxGeometry relative="1" as="geometry" />
        </mxCell>
        <mxCell id="FMrM_4cMwFXPyNiu1CsQ-14" value="Enable&#xa;notifications" style="rhombus;fillColor=none;strokeColor=#FFFFFF;" vertex="1" parent="FMrM_4cMwFXPyNiu1CsQ-2">
          <mxGeometry x="70" y="480" width="130" height="67" as="geometry" />
        </mxCell>
        <mxCell id="FMrM_4cMwFXPyNiu1CsQ-15" value="Notifications will&#xa; be sent by ring or&#xa; vibrate" style="" vertex="1" parent="FMrM_4cMwFXPyNiu1CsQ-2">
          <mxGeometry x="10" y="560" width="100" height="59" as="geometry" />
        </mxCell>
        <mxCell id="FMrM_4cMwFXPyNiu1CsQ-16" value="" style="endArrow=open;endFill=1;endSize=12;html=1;rounded=0;exitX=0;exitY=0.5;exitDx=0;exitDy=0;entryX=0.5;entryY=0;entryDx=0;entryDy=0;" edge="1" parent="FMrM_4cMwFXPyNiu1CsQ-2" source="FMrM_4cMwFXPyNiu1CsQ-14" target="FMrM_4cMwFXPyNiu1CsQ-15">
          <mxGeometry width="160" relative="1" as="geometry">
            <mxPoint x="320" y="550" as="sourcePoint" />
            <mxPoint x="480" y="550" as="targetPoint" />
            <Array as="points">
              <mxPoint x="60" y="514" />
            </Array>
          </mxGeometry>
        </mxCell>
        <mxCell id="FMrM_4cMwFXPyNiu1CsQ-17" value="Notifications &#xa;will not be&#xa; sent and muted" style="" vertex="1" parent="FMrM_4cMwFXPyNiu1CsQ-2">
          <mxGeometry x="170" y="560" width="100" height="59" as="geometry" />
        </mxCell>
        <mxCell id="FMrM_4cMwFXPyNiu1CsQ-18" value="" style="endArrow=open;endFill=1;endSize=12;html=1;rounded=0;exitX=1;exitY=0.5;exitDx=0;exitDy=0;entryX=0.5;entryY=0;entryDx=0;entryDy=0;" edge="1" parent="FMrM_4cMwFXPyNiu1CsQ-2" source="FMrM_4cMwFXPyNiu1CsQ-14" target="FMrM_4cMwFXPyNiu1CsQ-17">
          <mxGeometry width="160" relative="1" as="geometry">
            <mxPoint x="320" y="550" as="sourcePoint" />
            <mxPoint x="480" y="550" as="targetPoint" />
            <Array as="points">
              <mxPoint x="220" y="514" />
            </Array>
          </mxGeometry>
        </mxCell>
        <mxCell id="FMrM_4cMwFXPyNiu1CsQ-19" value="" style="html=1;points=[];perimeter=orthogonalPerimeter;outlineConnect=0;targetShapes=umlLifeline;portConstraint=eastwest;newEdgeStyle={&quot;edgeStyle&quot;:&quot;elbowEdgeStyle&quot;,&quot;elbow&quot;:&quot;vertical&quot;,&quot;curved&quot;:0,&quot;rounded&quot;:0};direction=south;strokeColor=#F0F0F0;fillColor=#FFFFFF;" vertex="1" parent="FMrM_4cMwFXPyNiu1CsQ-2">
          <mxGeometry x="100" y="650" width="70" height="10" as="geometry" />
        </mxCell>
        <mxCell id="FMrM_4cMwFXPyNiu1CsQ-20" value="Yes" style="text;html=1;align=center;verticalAlign=middle;resizable=0;points=[];autosize=1;strokeColor=none;fillColor=none;" vertex="1" parent="FMrM_4cMwFXPyNiu1CsQ-2">
          <mxGeometry x="20" y="517" width="40" height="30" as="geometry" />
        </mxCell>
        <mxCell id="FMrM_4cMwFXPyNiu1CsQ-21" value="No" style="text;html=1;align=center;verticalAlign=middle;resizable=0;points=[];autosize=1;strokeColor=none;fillColor=none;" vertex="1" parent="FMrM_4cMwFXPyNiu1CsQ-2">
          <mxGeometry x="220" y="517" width="40" height="30" as="geometry" />
        </mxCell>
        <mxCell id="FMrM_4cMwFXPyNiu1CsQ-22" value="" style="endArrow=open;endFill=1;endSize=12;html=1;rounded=0;exitX=0.5;exitY=1;exitDx=0;exitDy=0;entryX=0;entryY=0.75;entryDx=0;entryDy=0;entryPerimeter=0;" edge="1" parent="FMrM_4cMwFXPyNiu1CsQ-2" source="FMrM_4cMwFXPyNiu1CsQ-15" target="FMrM_4cMwFXPyNiu1CsQ-19">
          <mxGeometry width="160" relative="1" as="geometry">
            <mxPoint x="320" y="550" as="sourcePoint" />
            <mxPoint x="480" y="550" as="targetPoint" />
            <Array as="points">
              <mxPoint x="60" y="630" />
              <mxPoint x="120" y="630" />
            </Array>
          </mxGeometry>
        </mxCell>
        <mxCell id="FMrM_4cMwFXPyNiu1CsQ-23" value="" style="endArrow=open;endFill=1;endSize=12;html=1;rounded=0;exitX=0.5;exitY=1;exitDx=0;exitDy=0;" edge="1" parent="FMrM_4cMwFXPyNiu1CsQ-2" source="FMrM_4cMwFXPyNiu1CsQ-17" target="FMrM_4cMwFXPyNiu1CsQ-19">
          <mxGeometry width="160" relative="1" as="geometry">
            <mxPoint x="210" y="620" as="sourcePoint" />
            <mxPoint x="480" y="550" as="targetPoint" />
            <Array as="points">
              <mxPoint x="220" y="630" />
              <mxPoint x="150" y="630" />
            </Array>
          </mxGeometry>
        </mxCell>
        <mxCell id="FMrM_4cMwFXPyNiu1CsQ-24" value="" style="endArrow=open;endFill=1;endSize=12;html=1;rounded=0;entryX=0.5;entryY=0;entryDx=0;entryDy=0;" edge="1" parent="FMrM_4cMwFXPyNiu1CsQ-2" source="FMrM_4cMwFXPyNiu1CsQ-19" target="FMrM_4cMwFXPyNiu1CsQ-11">
          <mxGeometry width="160" relative="1" as="geometry">
            <mxPoint x="320" y="550" as="sourcePoint" />
            <mxPoint x="480" y="550" as="targetPoint" />
          </mxGeometry>
        </mxCell>
        <mxCell id="FMrM_4cMwFXPyNiu1CsQ-32" value="Allow access to&#xa;the device" style="rhombus;fillColor=none;strokeColor=#FFFFFF;" vertex="1" parent="FMrM_4cMwFXPyNiu1CsQ-2">
          <mxGeometry x="70" y="330" width="130" height="67" as="geometry" />
        </mxCell>
        <mxCell id="FMrM_4cMwFXPyNiu1CsQ-37" value="" style="endArrow=classic;html=1;rounded=0;exitX=0;exitY=0.5;exitDx=0;exitDy=0;entryX=0.5;entryY=0;entryDx=0;entryDy=0;" edge="1" parent="FMrM_4cMwFXPyNiu1CsQ-2" source="FMrM_4cMwFXPyNiu1CsQ-32" target="FMrM_4cMwFXPyNiu1CsQ-14">
          <mxGeometry width="50" height="50" relative="1" as="geometry">
            <mxPoint x="290" y="520" as="sourcePoint" />
            <mxPoint x="340" y="470" as="targetPoint" />
            <Array as="points">
              <mxPoint x="40" y="364" />
              <mxPoint x="40" y="420" />
              <mxPoint x="135" y="420" />
            </Array>
          </mxGeometry>
        </mxCell>
        <mxCell id="FMrM_4cMwFXPyNiu1CsQ-38" value="" style="endArrow=classic;html=1;rounded=0;exitX=1;exitY=0.5;exitDx=0;exitDy=0;entryX=0.841;entryY=-0.007;entryDx=0;entryDy=0;entryPerimeter=0;" edge="1" parent="FMrM_4cMwFXPyNiu1CsQ-2" source="FMrM_4cMwFXPyNiu1CsQ-32" target="FMrM_4cMwFXPyNiu1CsQ-11">
          <mxGeometry width="50" height="50" relative="1" as="geometry">
            <mxPoint x="290" y="520" as="sourcePoint" />
            <mxPoint x="340" y="470" as="targetPoint" />
            <Array as="points">
              <mxPoint x="300" y="364" />
              <mxPoint x="300" y="660" />
              <mxPoint x="190" y="660" />
            </Array>
          </mxGeometry>
        </mxCell>
        <mxCell id="FMrM_4cMwFXPyNiu1CsQ-40" value="Yes" style="text;html=1;align=center;verticalAlign=middle;resizable=0;points=[];autosize=1;strokeColor=none;fillColor=none;" vertex="1" parent="FMrM_4cMwFXPyNiu1CsQ-2">
          <mxGeometry x="30" y="338" width="40" height="30" as="geometry" />
        </mxCell>
        <mxCell id="FMrM_4cMwFXPyNiu1CsQ-39" value="No" style="text;html=1;align=center;verticalAlign=middle;resizable=0;points=[];autosize=1;strokeColor=none;fillColor=none;" vertex="1" parent="FMrM_4cMwFXPyNiu1CsQ-2">
          <mxGeometry x="200" y="338" width="40" height="30" as="geometry" />
        </mxCell>
        <mxCell id="FMrM_4cMwFXPyNiu1CsQ-25" value="System" style="swimlane;whiteSpace=wrap" vertex="1" parent="1">
          <mxGeometry x="430" y="99" width="280" height="811" as="geometry" />
        </mxCell>
        <mxCell id="FMrM_4cMwFXPyNiu1CsQ-26" value="Displays the access&#xa;allowance, the option to&#xa;enable or disable&#xa;notifications" style="" vertex="1" parent="FMrM_4cMwFXPyNiu1CsQ-25">
          <mxGeometry x="87.25" y="201" width="145" height="90" as="geometry" />
        </mxCell>
        <mxCell id="FMrM_4cMwFXPyNiu1CsQ-28" value="" style="endArrow=open;endFill=1;endSize=12;html=1;rounded=0;exitX=1;exitY=0.5;exitDx=0;exitDy=0;entryX=0;entryY=0.5;entryDx=0;entryDy=0;" edge="1" parent="1" source="FMrM_4cMwFXPyNiu1CsQ-5" target="FMrM_4cMwFXPyNiu1CsQ-26">
          <mxGeometry width="160" relative="1" as="geometry">
            <mxPoint x="405.5" y="372" as="sourcePoint" />
            <mxPoint x="565.5" y="372" as="targetPoint" />
          </mxGeometry>
        </mxCell>
        <mxCell id="FMrM_4cMwFXPyNiu1CsQ-34" value="" style="endArrow=classic;html=1;rounded=0;exitX=0.5;exitY=1;exitDx=0;exitDy=0;entryX=0.5;entryY=0;entryDx=0;entryDy=0;" edge="1" parent="1" source="FMrM_4cMwFXPyNiu1CsQ-26" target="FMrM_4cMwFXPyNiu1CsQ-32">
          <mxGeometry width="50" height="50" relative="1" as="geometry">
            <mxPoint x="400" y="520" as="sourcePoint" />
            <mxPoint x="450" y="470" as="targetPoint" />
            <Array as="points">
              <mxPoint x="590" y="410" />
              <mxPoint x="245" y="410" />
            </Array>
          </mxGeometry>
        </mxCell>
      </root>
    </mxGraphModel>
  </diagram>
</mxfile>
